<?xml version="1.0" encoding="utf-8" ?><svg xmlns="http://www.w3.org/2000/svg" xmlns:xlink="http://www.w3.org/1999/xlink" width="1152" height="896" viewBox="0 0 1152 896"><path fill="#202527" d="M153.708 58.5839L742.717 58.725L921.979 58.7395L973.296 58.7281C979.262 58.7006 1003.81 57.096 1007.2 61.1906C1007.56 64.779 1002.18 71.9066 1000.09 75.2789C1010.04 75.3858 1019.98 75.4219 1029.93 75.3874C1033.68 71.1873 1036.6 65.9305 1040.61 61.3275C1044.72 61.2842 1065.43 60.2496 1066.49 62.7536C1070.37 71.9436 1071.75 86.2952 1074.31 96.199C1090.13 88.0747 1087.32 106.843 1087.33 116.294L1087.37 147.761L1087.67 255.109L1087.53 633.646L1087.46 722.049C1087.43 735.662 1087.54 749.283 1087.37 762.892C1087.28 770.294 1082.48 770.542 1076.56 771.298L1076.6 792.271C1069.36 800.651 1058.6 809.942 1050.02 817.061C1047 819.569 1044.37 811.463 1043.86 809.979C1031.14 810.03 1018.42 809.952 1005.7 809.742C1008.03 813.981 1015.31 822.139 1013.26 826.283C1009.68 828.854 1003.4 828.044 998.859 827.936C976.468 827.407 950.949 828.193 928.286 828.227L785.252 828.189L339.142 828.33L193.834 828.167C180.202 828.095 165.532 828.64 151.889 828C149.386 827.882 147.408 826.897 146.106 824.741C146.281 821.064 152.237 813.685 154.73 810.005L117.594 809.903C115.75 812.995 114.357 816.428 111.01 817.423C107.045 816.68 85.8781 795.978 82.4198 791.951C82.2338 785.518 82.5309 777.856 82.6221 771.333C79.9383 771.37 73.145 770.696 72.9136 766.974C72.1714 755.038 72.4114 742.735 72.3467 730.732L72.0208 612.152L72.4217 103.74C72.5165 93.3658 76.1679 90.7991 85.0399 96.7426C88.1859 85.7004 89.437 71.941 92.9276 60.767C99.2064 60.0588 112.529 60.5378 119.274 60.6162C122.472 64.5553 126.654 70.8602 129.683 75.1532C138.878 75.5987 150.795 75.2611 160.208 75.3175C157.332 70.6109 151.476 63.9862 153.708 58.5839ZM134.624 149.411C135.344 161.187 135.027 176.427 135.053 188.463L135.144 254.342L134.926 464.293L134.632 641.588L134.521 698.022C134.499 707.549 134.848 721.153 134.065 730.409C140.395 738.036 150.095 746.74 157.285 754.316L529.065 754.746L1000.83 754.637C1001.36 754.578 1002 754.506 1002.75 754.423C1009.03 748.331 1021.21 736.657 1026.61 730.67C1025.97 694.384 1025.71 658.092 1025.84 621.8L1025.56 446.573L1025.49 256.138C1025.48 220.69 1025.14 184.563 1025.57 149.175C1017.1 141.346 1008.58 133.565 1000.02 125.831L160.499 125.968C154.102 131.567 140.048 143.444 134.624 149.411ZM90.1353 148.338C90.4944 143.154 90.5181 138.685 90.5241 133.499C89.3606 132.527 86.8499 130.311 85.666 129.624L85.7559 130.271C86.437 135.396 83.628 148.347 90.1353 148.338Z"/><path fill="#69415F" d="M190.553 772.774L971.847 772.844C974.743 776.169 979.088 782.678 981.958 786.558C990.747 798.295 999.306 810.203 1007.63 822.274C996.457 822.138 985.283 822.101 974.109 822.161L153.707 822.22C159.665 812.073 168.948 801.498 175.962 791.933C180.632 785.565 185.572 778.839 190.553 772.774Z"/><defs><linearGradient id="gradient_0" gradientUnits="userSpaceOnUse" x1="580.22369" y1="793.64557" x2="580.18781" y2="781.30194"><stop offset="0" stop-color="#172327"/><stop offset="1" stop-color="#353439"/></linearGradient></defs><path fill="url(#gradient_0)" d="M194.041 781.775L714.322 781.812L885.104 781.859C911.89 781.867 940.721 781.172 967.215 781.808C969.66 785.994 971.853 789.767 974.044 794.108C968.655 794.07 962.82 793.733 957.299 793.649L949.656 793.734C947.407 790.784 945.265 787.754 943.234 784.649L217.209 784.736C215.499 787.87 213.131 791.062 211.06 794.01C203.554 793.237 197.331 794.668 190.317 793.905C189.099 793.772 188.907 792.806 188.522 791.93C188.932 788.349 191.896 784.862 194.041 781.775Z"/><path fill="#74AFB4" d="M947.286 785.126C953.658 784.984 959.056 784.989 965.42 785.236L968.752 791.185C963.403 791.421 957.055 791.323 951.623 791.382L947.286 785.126Z"/><path fill="#74AFB4" d="M195.318 785.301C201.271 785.218 207.225 785.188 213.18 785.212L209.283 791.28C203.846 791.058 197.469 791.169 191.955 791.123L195.318 785.301Z"/><path fill="#69415F" d="M78.2632 100.899C85.8798 105.924 95.6624 116.88 102.483 123.619C111.051 132.083 120.54 140.846 128.757 149.496C129.152 182.731 129.202 215.97 128.906 249.206C127.242 248.429 124.121 246.535 122.311 246.834C121.571 246.957 121.365 247.174 120.959 247.783C119.288 250.286 120.304 324.246 120.293 334.917L120.191 567.184L119.987 626.736C119.957 631.301 117.773 642 122.098 643.856C124.478 643.733 126.446 642.092 128.552 640.742C129.295 665.573 128.545 693.006 128.235 717.904C123.165 722.779 117.416 727.806 112.199 732.705C105.319 739.383 98.4941 746.119 91.7249 752.91C87.665 756.948 83.2675 761.677 78.7706 765.105C78.1863 758.719 78.4913 747.605 78.4695 740.768L78.3862 694.869L78.2637 552.062L78.2632 100.899ZM90.1353 148.338C90.4944 143.154 90.5181 138.685 90.5241 133.499C89.3606 132.527 86.8499 130.311 85.666 129.624L85.7559 130.271C86.437 135.396 83.628 148.347 90.1353 148.338Z"/><path fill="#202527" d="M82.7994 124.447C85.9565 125.092 90.7556 129.561 93.409 131.759C93.6281 137.454 93.7499 147.979 93.3673 153.465C90.784 153.076 85.2049 149.782 82.6703 148.411C82.604 141.024 82.2751 131.664 82.7994 124.447ZM90.1353 148.338C90.4944 143.154 90.5181 138.685 90.5241 133.499C89.3606 132.527 86.8499 130.311 85.666 129.624L85.7559 130.271C86.437 135.396 83.628 148.347 90.1353 148.338Z"/><path fill="#202527" d="M92.503 724.309L93.2377 724.563C94.7187 726.87 93.7449 737.645 93.6074 741.041L84.6503 747.64C84.3036 747.746 84.0372 747.54 83.547 747.365C82.6558 744.529 83.127 734.12 83.2107 730.572C86.7094 727.682 88.5339 726.616 92.503 724.309Z"/><path fill="#74AFB4" d="M90.0059 729.664C91.9622 733.447 90.6991 739.368 86.9255 741.984L86.2947 741.502C84.7155 736.554 84.9654 732.087 90.0059 729.664Z"/><path fill="#69415F" d="M1080.45 101.769C1080.53 101.854 1080.64 101.923 1080.7 102.024C1082.59 104.999 1081.74 578.693 1081.72 620.446L1081.65 715.39C1081.63 728.514 1082.33 752.783 1081.16 765.151C1077.08 761.993 1073.07 757.663 1069.33 754.015C1062.33 747.303 1055.38 740.532 1048.48 733.702C1043.2 728.61 1037.94 723.489 1032.7 718.34C1031.53 694.405 1031.91 663.923 1031.69 639.675C1034.17 641.65 1035.91 643.855 1039.14 642.993C1041.27 640.482 1040.32 637.098 1040.3 633.998C1040.03 602.436 1040.12 570.847 1040.09 539.278L1040.02 331.736C1040.03 320.02 1041.11 253.098 1039.5 248.99C1039.03 247.784 1038.7 247.755 1037.58 247.258C1035.26 247.451 1033.44 248.759 1031.35 249.928C1030.81 217.103 1031.04 181.92 1031.49 149.096C1039.3 140.986 1048.82 132.371 1056.82 124.233C1062.61 118.347 1074.3 106.099 1080.45 101.769Z"/><path fill="#202527" d="M1074.64 124.653L1075.98 124.938C1077.4 127.811 1076.71 145.066 1076.65 149.471L1067.86 153.615L1066.61 153.344C1065.33 150.867 1065.98 136.045 1066.05 132.097C1068.96 129.05 1071.31 127.215 1074.64 124.653Z"/><path fill="#74AFB4" d="M1073.6 129.857C1074.61 131.696 1074.37 144.003 1074.13 146.747C1073.19 147.947 1071.06 148.488 1069.54 149.055C1068.17 147.092 1068.75 136.613 1068.78 133.567L1073.6 129.857Z"/><path fill="#202527" d="M1065.92 724.136C1069.79 724.555 1073.65 728.063 1076.85 730.496C1076.87 736.471 1076.82 742.446 1076.71 748.42C1073.5 747.012 1068.8 743.182 1066.16 740.794C1065.8 736.001 1065.95 729.105 1065.92 724.136Z"/><path fill="#74AFB4" d="M1069.37 729.319C1070.85 729.921 1072.96 731.252 1074.39 732.096L1074.32 742.841C1072.83 742.123 1070.7 740.416 1069.28 739.381C1069.21 736.059 1069.31 732.649 1069.37 729.319Z"/><path fill="#69415F" d="M285.389 64.7237C322.731 64.2809 360.474 64.5638 397.853 64.5721L605.838 64.6246L769.798 64.5511C801.065 64.541 833.596 64.0719 864.752 64.7977C859.625 73.8883 853.902 83.0913 848.431 91.9968L842.748 100.82C841.198 96.7871 840.098 92.5573 834.663 92.5464C830.257 92.5375 825.874 92.8772 821.439 92.8824L784.787 92.8739L666.272 92.9069L311.849 92.6529C310.74 95.2994 309.568 97.9187 308.333 100.508C300.54 88.6738 292.891 76.7446 285.389 64.7237Z"/><path fill="#53CFD0" d="M215.986 762.78C262.205 762.146 310.179 763.031 356.529 762.984L680.571 762.835L856.019 762.796L911.116 762.758C921.662 762.75 933.918 762.434 944.307 763.029C945.875 764.981 947.651 767.929 949.041 770.1L942.891 770.151C899.43 770.671 855.083 770.203 811.541 770.221L548.508 770.282L327.965 770.283C288.863 770.472 249.761 770.374 210.661 769.99C212.499 767.634 214.275 765.23 215.986 762.78Z"/><path fill="#53CFD0" d="M204.194 110.187C286.399 111.305 370.76 110.257 453.186 110.27L955.657 110.293L951.171 116.654C949.821 117.935 929.927 117.336 926.641 117.334L875.103 117.231L719.482 117.229L209.372 117.38L204.194 110.187Z"/><path fill="#69415F" d="M873.592 64.6961C915.594 64.4095 957.598 64.4462 999.599 64.8062C992.215 76.3052 983.673 89.9384 975.053 100.356C972.85 102.374 935.865 101.816 929.933 101.829L850.891 101.855C856.39 91.0795 866.944 75.7175 873.592 64.6961Z"/><defs><linearGradient id="gradient_1" gradientUnits="userSpaceOnUse" x1="223.69371" y1="52.393158" x2="236.43129" y2="112.97031"><stop offset="0" stop-color="#653856"/><stop offset="1" stop-color="#70526F"/></linearGradient></defs><path fill="url(#gradient_1)" d="M161.073 64.4093C198.29 63.7327 239.557 64.0613 276.812 64.7345C283.223 73.4639 294.785 92.3016 300.008 101.655C277.092 101.837 254.174 101.859 231.258 101.721C217.685 101.692 199.331 102.161 186.054 101.243C181.953 96.12 162.379 69.1918 161.073 64.4093Z"/><path fill="#69415F" d="M312.565 95.4295L671.754 95.5145L783.089 95.5491C795.603 95.485 808.118 95.4975 820.632 95.5865C826.104 95.6035 840.753 92.7918 839.636 101.173L838.626 101.619C817.943 102.227 795.663 101.836 774.867 101.842L660.834 101.874L310.469 101.82C311.01 99.5546 311.769 97.6049 312.565 95.4295Z"/><path fill="#69415F" d="M97.1813 66.321L115.891 66.4153C121.405 72.4047 129.089 83.3908 134.098 90.2978C141.393 100.357 149.811 111.171 156.704 121.39C155.167 123.003 153.477 124.314 151.759 125.731C139.14 111.416 127.559 95.8747 114.605 81.7923C112.907 79.9462 106.626 73.6774 104.56 77.8412C106.306 80.2724 108.429 79.5636 111.863 83.2963L112.324 83.8059C123.521 95.6949 139.045 114.805 149.512 127.57C144.814 132.378 137.466 138.867 132.202 143.005C119.285 128.959 102.592 114.287 90.3534 100.181C93.3597 88.106 95.1414 78.5388 97.1813 66.321Z"/><path fill="#69415F" d="M122.804 249.616C125.856 250.966 126.472 251.634 128.962 253.811C129.495 267.847 129.027 285.18 129.021 299.489L128.928 387.272L128.719 634.548L125.956 637.746C125.02 638.633 124.16 639.307 123.165 640.117L122.737 639.756C122.261 635.086 122.555 628.774 122.548 623.896L122.547 594.231L122.58 499.366L122.597 345.676C122.547 314.374 121.894 280.697 122.804 249.616Z"/><path fill="#69415F" d="M1043.56 66.993L1062.22 66.978C1064.33 78.2503 1066.52 89.5062 1068.8 100.745C1057.36 113.605 1040.31 129.904 1027.78 142.826C1022.01 137.784 1015.96 132.668 1010.59 127.228C1019.78 116.27 1029.25 105.801 1038.39 94.8592C1041.56 90.9863 1047.64 83.2109 1051.34 80.3332C1052.95 80.1039 1054.3 80.1379 1055.48 79.1052L1055.49 78.1115C1054.26 77.1068 1051.06 76.1849 1050.01 77.3258C1035.76 92.8596 1021.44 109.363 1008.08 125.725L1004.03 121.317C1015.52 104.462 1030.88 82.6837 1043.56 66.993Z"/><path fill="#69415F" d="M1036.38 250.177C1037.59 251.289 1037.43 254.62 1037.42 256.191C1037.15 380.31 1037.17 504.447 1037.86 628.562C1037.88 631.32 1038.44 637.364 1036.67 639.192L1035.07 638.282C1033.82 636.95 1031.82 635.165 1031.76 633.432C1031.32 621.509 1031.61 608.964 1031.56 597.023L1031.25 516.539L1031.11 254.339C1032.99 252.417 1034.2 251.665 1036.38 250.177Z"/><path fill="#69415F" d="M125.059 733.456C133.167 740.969 140.985 748.879 148.98 756.533C138.01 770.393 122.12 789.691 110.328 803.026L106.948 806.958C100.922 801.461 94.9532 796.325 89.4341 790.304C89.2672 783.104 89.4967 776.312 89.0515 769.036C96.6281 760.586 105.824 752.672 113.643 744.367C117.055 740.744 121.263 736.653 125.059 733.456Z"/><path fill="#69415F" d="M1034.96 733.347C1036.91 734.819 1045.99 743.946 1048.12 746.075C1055.47 753.443 1063.73 760.862 1070.87 768.317C1070.57 775.369 1070.61 783.04 1070.5 790.141C1068.48 792.54 1054.51 806.029 1052.23 806.252L1051.12 805.093C1049.59 803.46 1048.02 801.471 1046.64 799.694C1035.27 785.061 1022.69 771.162 1011.41 756.488C1018.68 750.02 1027.9 740.374 1034.96 733.347Z"/></svg>