<?xml version="1.0" encoding="utf-8" ?><svg xmlns="http://www.w3.org/2000/svg" xmlns:xlink="http://www.w3.org/1999/xlink" width="1152" height="896" viewBox="0 0 1152 896"><path fill="#1F2426" d="M160.82 51.7152C171.841 51.1227 187.048 51.5505 198.345 51.5521L267.655 51.5749L480.158 51.6015L821.012 51.5969L929.706 51.6094C946.069 51.6049 962.458 51.4877 978.821 51.4681C981.605 51.4648 985.462 51.7999 987.443 53.8699C987.809 57.2857 982.271 64.9218 980.21 69.0805C990.35 68.8577 1001.23 69.06 1011.42 69.0941C1014.57 64.4454 1018.49 59.3587 1021.85 54.7923C1026.56 54.3768 1044.95 53.9515 1048.87 55.6587C1051.52 59.5981 1055.76 84.5334 1057.3 91.228C1060.55 89.365 1064.75 87.1201 1068.51 90.075C1070.08 91.3045 1070.49 92.8252 1070.6 94.7918C1070.97 101.571 1070.86 108.416 1070.87 115.217L1070.88 151.731L1070.82 240.154C1070.8 257.689 1070.55 276.085 1071.03 293.574C1075.43 290.057 1097.22 269.884 1100.81 270.079C1102.68 270.181 1104.81 271.305 1106.04 272.69C1107.11 273.881 1107 276.405 1107.05 277.938C1107.41 289.22 1107.11 300.602 1107.09 311.894L1107.02 375.567L1107.2 596.249C1104.7 600.128 1097.54 607.684 1094.08 611.619C1086.16 620.601 1078.31 629.655 1070.55 638.78C1070.96 671.341 1071.12 703.905 1071.05 736.469L1071.08 767.75C1071.09 772.913 1072.1 783.424 1069.3 787.762C1067.6 790.407 1062.65 790.809 1059.64 791.192L1059.71 813.037C1052.78 820.908 1039.72 832.912 1030.93 839.009C1027.69 841.255 1025.85 833.984 1025.3 831.947C1012.32 831.266 998.267 831.9 985.058 831.579C989.333 839.514 1001.13 851.09 983.953 850.594C911.926 849.759 838.552 850.577 766.367 850.577L350.395 850.502L200.665 850.454C187.293 850.39 173.111 850.998 159.712 850.486C157.123 850.387 155.124 849.442 153.785 847.217C154.144 843.116 160.176 835.611 162.897 831.416L123.028 831.624C121.25 835.09 120.624 838.632 116.551 839.271C112.598 837.84 89.2423 815.622 86.9824 811.871L87.1351 791.122C82.1265 790.925 77.1838 790.114 76.788 784.053C76.4228 778.461 76.5622 772.834 76.564 767.229L76.5758 736.882L76.6533 639.366C69.7331 632.798 61.1203 621.807 54.5239 614.656C51.4384 611.311 41.2729 599.727 39.3611 596.329L39.5092 366.393C39.5387 337.121 39.4315 307.847 39.4869 278.576C39.4939 274.922 39.4481 270.52 43.9015 269.581C51.1696 270.356 67.8236 288.457 75.9064 293.733L76.4676 294.094C76.5635 273.312 75.385 94.5719 76.943 90.8741C77.3754 89.8478 78.6072 88.8535 79.6339 88.4761C83.0801 87.2095 87.1456 90.0022 90.0476 91.547C91.1917 84.838 94.6589 59.7345 97.9536 55.1891C102.254 53.0323 118.77 54.0055 124.657 54.1098C127.156 56.4846 133.361 65.8079 135.645 69.1112L167.848 69.0575C164.676 63.7454 159.448 57.5177 160.82 51.7152ZM140.686 145.814L140.87 350.054C142.252 351.107 143.986 352.347 145.269 353.464C145.799 362.483 145.327 372.34 145.417 381.444C145.606 400.477 145.076 420.246 145.747 439.239C143.159 442.419 140.297 444.885 137.28 447.636C137.352 459.24 137.215 471.529 137.518 483.071C140.193 485.742 143.9 489.237 146.255 492.06C146.26 519.681 146.726 548.353 146.452 575.838C144.169 578.193 143.038 579.343 140.454 581.346L140.686 679.253C140.685 701.635 141.057 725.332 140.423 747.592C148.997 756.223 157.62 764.806 166.29 773.34L980.578 773.282C981.058 773.198 981.539 773.113 982.019 773.028C990.612 764.63 998.993 756.039 1007.61 747.656C1007.21 692.818 1006.9 635.565 1007.58 580.798C1004.89 578.944 1003.03 577.346 1000.76 574.958C1000.68 548.199 1000.03 518.77 1000.76 492.187C1004.04 488.563 1006.74 485.969 1010.28 482.646C1010.28 471.74 1009.96 458.532 1010.63 447.855C1007.87 445.261 1003.7 441.689 1001.23 439.101C1001.32 421.907 1001.29 404.713 1001.14 387.519C1001.06 377.247 1000.65 363.612 1001.23 353.475C1002.85 351.842 1005.16 349.667 1006.65 348.01L1006.78 215.359C1006.79 192.785 1006.27 167.732 1007.01 145.463C997.837 137.517 988.436 129.176 979.108 121.466L436.655 121.518L258.177 121.508L199.332 121.504C189.878 121.504 178.021 121.189 168.73 121.581C163.027 125.852 146.027 140.291 140.686 145.814Z"/><path fill="#6A4160" d="M201.398 792.44L948.061 792.318C956.355 804.014 965.394 815.011 973.858 826.551C977.976 832.165 982.956 838.475 986.021 844.678L951.891 844.495L161.144 844.705C164.769 838.877 171.972 829.545 176.408 823.891C184.392 813.715 193.028 802.171 201.398 792.44Z"/><path fill="#1F2426" d="M204.58 801.906L204.95 801.961C211.007 802.906 223.725 802.604 230.319 802.644L276.561 802.802L429.953 802.765L750.431 802.785C814.782 803.033 879.133 802.884 943.481 802.337C946.279 806.505 948.432 810.498 950.616 815.003C945.763 815.186 939.541 814.951 934.582 814.889L925.382 815.034C923.01 812.658 920.139 808.389 918.1 805.556C883.394 805.036 847.575 805.464 812.774 805.462L616.219 805.448L229.54 805.565C227.281 809.387 225.474 811.751 222.808 815.26C214.293 814.744 205.773 815.469 196.929 814.871L204.58 801.906Z"/><path fill="#56A6B0" d="M205.733 805.979C212.039 805.8 218.544 805.869 224.869 805.862L220.933 811.879C218.866 812.495 205.342 812.089 202.254 812.038L205.733 805.979Z"/><path fill="#56A6B0" d="M930.793 805.722C934.119 805.641 938.301 805.862 941.692 805.945L945.391 811.927L939.516 811.883L926.897 811.91L922.733 805.77L930.793 805.722Z"/><path fill="#6A4160" d="M294.861 57.5323C315.878 57.8515 337.794 57.5195 358.885 57.5233L487.004 57.5404L839.28 57.5154C833.805 66.9742 826.349 77.4424 821.482 86.569C819.222 89.1741 818.196 92.0684 815.857 94.864C815.108 93.1097 813.283 88.4238 812.209 87.2274C811.289 86.3147 811.488 86.3718 809.75 86.3582L322.943 86.4844C321.704 89.214 320.447 91.9359 319.174 94.6498C310.939 82.5716 302.852 69.8121 294.861 57.5323Z"/><path fill="#6A4160" d="M54.2988 472.707C57.0527 474.404 63.1005 479.833 65.802 482.144L86.69 500.017C98.1653 509.764 109.587 519.573 120.954 529.446C126.948 534.577 135.131 540.93 140.504 546.414L140.617 568.704C129.551 574.899 109.687 588.045 99.0524 592.323C92.368 587.495 78.4758 573.426 72.1364 567.298L72.0415 550.464C68.5238 547.288 63.492 543.365 59.7562 540.269C59.2648 545.782 59.5593 555.059 59.5804 560.86C62.4736 564.115 67.6473 568.415 71.0639 571.519C79.4441 579.132 87.6621 586.159 95.4694 594.409C86.4597 609.192 83.3936 616.143 76.4645 631.942C69.0319 624.26 59.7667 613.754 52.8673 605.578C49.8206 602.131 42.6938 595.645 44.6346 591.016L45.5177 590.994C50.4533 595.362 58.0705 605.213 62.9644 610.483C65.8572 613.598 73.0534 621.532 75.2867 624.678C77.6845 616.044 80.7508 605.381 81.2866 596.565C73.286 586.644 63.0209 577.411 54.6013 567.161C54.1655 544.004 54.6245 519.479 54.6039 496.167C70.1493 509.104 85.5699 522.191 100.864 535.424C106.694 540.495 118.059 551.497 123.803 555.281C124.001 552.105 123.846 549.267 123.722 546.095C122.287 544.469 120.712 543.048 119.106 541.596C98.025 522.533 75.0782 505.44 54.5256 485.797L54.2988 472.707Z"/><path fill="#6A4160" d="M1091.21 473.197C1092.25 475.181 1091.68 483.465 1091.58 486.119C1082.21 495.141 1027.27 540.286 1024.35 546.209C1023.32 548.298 1023.42 551.379 1024.13 553.553L1025.09 553.911C1026.75 553.464 1028.2 552.538 1029.46 551.369C1049.52 532.795 1069.97 514.277 1091.25 497.137C1091.96 506.465 1091.73 516.968 1091.76 526.404C1091.86 540.328 1091.84 554.252 1091.71 568.176C1084.48 576.458 1070.88 589.463 1065.27 597.64C1066.2 606.294 1069.3 616.784 1071.29 625.445C1075.64 619.834 1097.09 593.132 1101.74 592.38L1102.22 593.245C1101.81 596.587 1095.89 602.813 1093.49 605.568C1086.75 614.218 1077.57 623.843 1070.29 632.364C1063.75 617.626 1059.57 608.577 1051.37 594.828C1060.46 584.944 1076.44 570.133 1086.73 561.744C1086.86 554.986 1086.8 548.227 1086.56 541.473L1086.17 541.725C1081.28 545.002 1078.6 547.315 1074.1 551.146C1074.28 556.525 1074.18 562.495 1074.2 567.922C1069.24 573.173 1053.29 588.605 1048.06 592.157C1039.4 588.387 1014.53 574.123 1006.94 568.529L1006.63 546.394C1032.55 522.342 1064.06 496.562 1091.21 473.197Z"/><path fill="#6A4160" d="M55.2897 283.811C81.8278 302.497 104.96 326.538 130.236 346.916C133.303 349.389 136.394 352.449 138.929 355.454C139.643 377.873 139.16 402.414 139.497 425.201C135.54 421.332 129.091 416.237 124.703 412.565L118.298 407.31C118.231 405.968 118.193 404.577 117.979 403.249C117.469 400.097 81.0883 370.481 74.9923 366.345C72.5254 366.804 69.995 367.593 67.8423 366.721C64.8529 360.757 69.3367 340.594 65.2148 338.02L64.2599 338.61C63.4456 341.341 63.8275 359.492 63.855 363.572C61.3039 361.345 58.0089 358.875 55.3117 356.74C54.8222 345.41 55.1149 332.183 55.1299 320.663C55.1453 308.843 54.835 295.449 55.2897 283.811Z"/><path fill="#6A4160" d="M1090.67 284.03C1091.69 285.578 1091.16 349.253 1091.13 356.805C1088.92 358.831 1085.28 361.348 1082.77 363.19C1082.12 356.252 1083.48 341.675 1080.99 337.959L1080.17 337.863C1078.91 340.364 1079.45 360.604 1079.2 365.268C1077.34 367.162 1070.17 366.151 1067.2 368.985C1055.67 379.627 1043.3 389.276 1031.56 399.671C1029.02 401.921 1029 405.305 1027.48 408.068C1026.56 409.756 1022.9 412.231 1021.3 413.424C1016.56 417.376 1011.78 421.278 1006.96 425.132L1007.09 355.701C1016.68 346.552 1027.76 337.995 1037.8 329.197C1055.31 313.868 1072.59 298.683 1090.67 284.03Z"/><path fill="#6A4160" d="M52.8545 379.626C67.3047 391.104 82.7773 405.97 97.4318 417.938C106.301 425.182 124.249 439.63 131.483 447.125C131.608 458.621 131.636 470.117 131.567 481.613C124.315 487.705 115.104 494.79 108.553 501.287C108.49 497.334 108.379 493.381 108.221 489.431C104.055 484.114 93.9466 475.684 88.5039 470.985L60.4941 446.711C58.5222 444.963 55.8043 442.989 53.6701 441.353C53.3634 447.266 53.2326 453.186 53.2779 459.106C63.2463 469.339 80.0476 481.354 90.8537 491.333C94.3813 494.591 101.624 499.811 104.308 503.361C104.35 505 104.452 505.058 103.751 506.6C103.566 506.6 103.378 506.625 103.195 506.598C99.5081 506.067 50.5928 462.184 44.7273 456.204C44.2801 447.375 44.5995 437.326 44.6693 428.413L44.9556 385.522C47.7215 383.263 49.9111 381.659 52.8545 379.626Z"/><path fill="#1F2426" d="M60.728 399.071C63.6286 399.976 110.775 440.229 115.626 445.33C116.192 449.93 115.982 456.934 115.745 461.553C112.841 459.902 96.7047 445.36 93.3209 442.255C83.1351 432.91 70.4233 423.433 60.6384 414.081C60.0867 409.252 60.3155 403.9 60.728 399.071Z"/><path fill="#56A6B0" d="M63.7238 405.311C65.908 406.545 76.9987 416.238 79.4195 418.337C90.3634 427.827 101.855 437.203 112.541 446.934C112.612 449.104 112.52 451.864 112.504 454.08C108.859 451.865 95.0519 438.958 90.5634 435.02C81.9732 427.484 72.0715 419.49 63.7501 411.853L63.7238 405.311Z"/><path fill="#6A4160" d="M1092.94 380.046C1095.46 380.509 1100 384.694 1101.89 386.388L1102.04 455.751C1097.26 462.051 1086.74 470.353 1080.78 475.715C1068.97 486.344 1055.89 496.556 1044.22 507.217L1043.26 507.015L1042.41 504.751C1043.27 501.4 1058.76 489.325 1062.42 486.255L1093.93 459.65C1093.97 455.733 1095.02 445.658 1091.67 443.608C1089.84 443.804 1088.98 444.832 1087.52 446.047C1072.33 459.249 1052.88 475.481 1038.86 488.989C1038.86 493.255 1038.98 497.635 1039.05 501.911C1031.57 494.915 1023.77 488.442 1016.27 481.272C1015.77 470.22 1015.91 458.122 1015.85 446.974C1022.17 440.43 1034.83 430.449 1042.3 423.993C1059.07 409.221 1075.96 394.572 1092.94 380.046Z"/><path fill="#1F2426" d="M1083.86 400.276L1084.74 400.461C1086.38 402.481 1085.69 412.116 1085.64 415.253C1067.61 429.229 1050 446.046 1032.49 460.767L1031.48 460.499C1030.1 457.593 1030.65 448.922 1030.76 445.318L1083.86 400.276Z"/><path fill="#56A6B0" d="M1081.7 406.051C1082.7 407.561 1082.36 410.404 1082.4 412.558C1067.31 426.082 1050.58 440.167 1035.12 453.375C1034.07 452.29 1034.43 448.302 1034.46 446.636C1045.41 436.009 1058.29 426.518 1069.64 416.264C1073.47 412.797 1077.66 409.25 1081.7 406.051Z"/><path fill="#6A4160" d="M82.804 95.3768C87.245 97.9438 129.288 139.761 134.416 146.165L134.473 214.669C134.483 221.65 134.923 242.097 134.057 247.745C123.492 238.715 112.948 228.587 102.532 219.26C96.4622 213.824 88.7487 207.592 83.2237 202.087C82.8414 194.185 82.9173 185.619 82.9961 177.677C83.2676 150.32 82.1837 122.703 82.804 95.3768Z"/><path fill="#1F2426" d="M87.4792 119.37C91.428 120.397 95.8327 125.284 98.8814 128.232C99.0193 134.417 99.3814 144.913 98.7313 150.806C94.8584 149.219 90.7948 146.749 87.1185 144.66C86.8984 138.657 85.9322 124.314 87.4792 119.37Z"/><path fill="#56A6B0" d="M90.0856 125.159C91.4522 125.891 94.1762 128.592 95.4447 129.767L95.404 145.599C94.3657 145.348 91.1583 143.889 90.0014 143.396C89.9135 137.317 89.9416 131.237 90.0856 125.159Z"/><path fill="#6A4160" d="M1063.95 95.4914L1064.35 95.8816C1064.9 97.9854 1064.59 116.128 1064.59 119.487L1064.28 202.057C1060.15 206.261 1049.79 214.693 1044.94 218.998C1035.63 227.249 1023.72 238.927 1013.97 246.128L1013.51 246.107C1012.27 242.658 1013.24 156.657 1013.26 145.85C1019.7 138.603 1030.33 128.7 1037.5 121.438C1045.02 113.806 1056.08 102.099 1063.95 95.4914Z"/><path fill="#1F2426" d="M1058.32 119.695L1059.08 120.296C1060.1 124.609 1059.69 140.527 1059.66 145.77C1055.81 147.906 1053.86 148.849 1049.76 150.425L1049.09 149.98C1047.91 147.416 1048.62 132.273 1048.71 128.354C1051.47 124.866 1054.85 122.464 1058.32 119.695Z"/><path fill="#56A6B0" d="M1056.5 125.363C1057.86 127.007 1057.38 140.247 1057.37 143.432L1052.64 145.869C1051.29 144.33 1051.53 132.316 1051.48 129.37C1052.88 128.057 1054.94 126.567 1056.5 125.363Z"/><path fill="#4ED1D5" d="M565.926 104.898L932.573 104.995L927.509 112.431L582.469 112.512L219.295 112.36L214.218 105.105C249.717 104.448 286.909 105.055 322.578 105.016L565.926 104.898Z"/><path fill="#4ED1D5" d="M228.612 781.745L918.896 781.682C920.51 783.744 922.41 785.773 923.168 788.205L922.584 789.055L920.391 789.159L222.779 789.262C225.086 786.543 226.635 784.69 228.612 781.745Z"/><defs><linearGradient id="gradient_0" gradientUnits="userSpaceOnUse" x1="907.43213" y1="45.565067" x2="895.94287" y2="107.42426"><stop offset="0" stop-color="#683958"/><stop offset="1" stop-color="#6F526F"/></linearGradient></defs><path fill="url(#gradient_0)" d="M849.263 57.5736C892.361 57.0297 936.503 57.4884 979.678 57.4675C971.708 69.7347 962.602 83.8057 953.362 95.1519C950.125 96.6291 837.081 96.2362 824.557 95.9699C832.738 83.1761 840.347 69.9575 849.263 57.5736Z"/><path fill="#6A4160" d="M168.514 57.5852C206.95 56.8812 247.248 57.5009 285.808 57.5198C292.43 66.4232 304.909 86.0442 310.695 95.8093C296.311 96.5872 279.331 96.1523 264.705 96.1441L196.021 96.0433C188.906 88.3982 173.934 66.387 168.514 57.5852Z"/><path fill="#6A4160" d="M132.932 656.845C133.234 657.168 133.536 657.491 133.839 657.815C134.449 678.583 134.281 715.994 133.957 735.445C131.757 738.206 118.689 750.309 115.401 753.35C105.111 762.866 94.2827 774.623 83.8276 783.616C83.7601 783.552 83.681 783.5 83.6252 783.426C82.132 781.45 83.2492 709.538 83.2432 700.027C85.4608 697.697 87.9741 695.501 90.4546 693.445C104.734 681.61 118.187 668.074 132.932 656.845Z"/><path fill="#1F2426" d="M97.9084 742.278L98.9326 742.808C99.808 745.223 98.9762 755.91 98.8007 759.16C94.933 761.649 92.7687 763.385 89.2715 766.268L88.2019 766.416C86.8558 763.739 87.6054 751.763 87.7133 748.241C90.8497 745.836 94.2747 743.833 97.9084 742.278Z"/><path fill="#56A6B0" d="M94.0204 747.748L94.9139 748.122C95.805 749.429 95.9719 752.244 95.7054 753.791C94.9939 757.922 94.8165 757.732 91.9896 760.012L91.247 760.33L90.6762 759.661C90.1905 754.476 89.3535 750.707 94.0204 747.748Z"/><path fill="#6A4160" d="M1013.64 656.498C1018.65 658.702 1041.39 680.035 1046.88 684.915C1052.68 690.113 1058.66 695.107 1064.8 699.89C1064.42 726.419 1065.8 757.54 1064.59 783.302C1060.85 782.901 1020.25 741.399 1014.23 735.425C1013.5 709.694 1013.78 682.315 1013.64 656.498Z"/><path fill="#1F2426" d="M1048.88 741.388C1052.98 742.729 1056.36 745.304 1059.72 747.949C1060.49 755.427 1060.33 759.748 1059.58 767.024C1054.94 764.58 1052.41 762.228 1048.68 758.561C1048.61 754.502 1048.21 744.985 1048.88 741.388Z"/><path fill="#56A6B0" d="M1051.91 746.591C1053.41 747.225 1056 748.787 1057.52 749.64L1057.5 761.439C1055.64 760.688 1053.51 758.598 1051.9 757.22C1051.83 753.716 1051.89 750.104 1051.91 746.591Z"/><path fill="#6A4160" d="M815.857 94.864C818.196 92.0684 819.222 89.1741 821.482 86.569C821.522 90.186 819.292 91.4082 817.339 94.0665C814.532 97.8872 806.684 96.9482 801.51 96.9983L443.091 97.012L365.492 97.0024C358.844 97.0021 325.753 97.59 321.488 96.162C320.342 94.1957 321.216 93.2585 322.458 91.5155C322.979 90.7014 323.509 89.9537 324.06 89.1626C326.875 88.5054 350.217 88.8155 354.068 88.826L424.308 88.884L633.044 88.8743C672.079 88.8838 711.656 89.2345 750.649 88.8032C758.911 87.6678 808.7 89.587 812.209 87.2274C813.283 88.4238 815.108 93.1097 815.857 94.864Z"/><path fill="#2C3339" d="M815.857 94.864C818.196 92.0684 819.222 89.1741 821.482 86.569C821.522 90.186 819.292 91.4082 817.339 94.0665C814.532 97.8872 806.684 96.9482 801.51 96.9983L443.091 97.012L365.492 97.0024C358.844 97.0021 325.753 97.59 321.488 96.162C320.342 94.1957 321.216 93.2585 322.458 91.5155C322.078 93.3096 322.058 93.3276 322.152 95.1458C326.053 96.6778 424.792 95.7301 439.24 95.7376L678.273 95.7485C723.098 95.7473 768.81 96.2457 813.559 95.549L811.463 88.9122C791.594 88.8508 770.367 89.3406 750.649 88.8032C758.911 87.6678 808.7 89.587 812.209 87.2274C813.283 88.4238 815.108 93.1097 815.857 94.864Z"/><path fill="#6A4160" d="M91.203 216.367C94.7941 218.445 121.795 242.359 125.631 246.263C124.935 275.113 125.209 307.232 125.477 336.126C124.588 335.55 117.472 329.274 116.255 328.199C107.973 320.886 98.8771 313.538 91.2076 305.643L91.203 216.367Z"/><path fill="#6A4160" d="M1054.91 216.955L1055.53 217.474C1056.18 220.696 1055.93 239.586 1055.93 243.826L1055.81 306.244C1046.99 314.803 1031.98 326.923 1022.21 335.347C1021.55 332.297 1021.76 312.786 1021.75 308.63C1021.81 287.699 1021.74 266.768 1021.52 245.838C1031.86 236.191 1044.07 226.281 1054.91 216.955Z"/><path fill="#6A4160" d="M102.737 60.2003L121.416 60.2836C129.763 69.9389 138.249 81.785 145.822 92.0561C151.666 99.983 158.554 108.984 163.874 117.175L158.387 121.026C148.006 110.324 138.728 96.3511 128.534 85.3029C124.693 81.1405 117.198 68.4632 110.554 71.8429L110.293 72.8593C111.719 74.2197 112.408 73.9801 114.581 74.4156L118.969 79.1747C131.361 93.8508 144.344 108.434 156.226 123.483C152.237 127.855 143.392 135.322 138.673 139.514C125.06 124.764 109.47 109.936 95.2807 95.5307C98.023 83.8096 100.509 72.03 102.737 60.2003Z"/><path fill="#6A4160" d="M1025.55 60.4158C1031.89 60.3609 1038.24 60.361 1044.59 60.4161C1047.2 71.2465 1049.45 84.4913 1051.81 95.6717C1037.88 108.249 1022.56 125.907 1008.91 139.332C1003.14 133.824 996.339 128.017 990.354 122.637C996.793 116.892 1012.77 97.3835 1019.26 89.7903C1023.47 85.0613 1027.08 79.8128 1031.65 75.3902C1033.32 73.7664 1034.29 73.9559 1036.59 73.7685C1037.92 72.6807 1037.47 73.3519 1037.94 71.6554C1031.07 67.6436 1020.57 83.5395 1016.51 88.3418L988.662 120.971L984.476 117.288C986.869 112.336 997.312 97.6969 1000.89 92.9052C1007.87 83.5427 1017.67 68.7883 1025.55 60.4158Z"/><path fill="#6A4160" d="M131.532 751.288C134.905 753.546 152.72 771.269 157.135 775.504C144.529 791.463 129.682 808.407 116.571 824.267C115.523 825.577 114.011 827.182 112.869 828.472C107.921 824.064 97.9286 815.574 94.061 810.886L93.9404 788.187C105.019 777.03 120.086 761.854 131.532 751.288Z"/><path fill="#6A4160" d="M1016.62 750.851L1053.56 788.058C1053.48 795.582 1053.46 803.106 1053.51 810.631C1048.33 816.318 1040.63 823.163 1034.89 828.55L1032.37 825.683C1028.32 821.383 1021.8 812.773 1017.73 807.747L991.196 775.231C999.111 768.796 1008.25 758.15 1016.62 750.851Z"/><path fill="#6A4160" d="M54.9773 362.359C58.3267 363.723 64.7795 369.496 68.1148 372.048L74.1935 370.522C86.1366 378.973 102.024 393.84 114.53 403.718L114.724 409.33C121.653 416.379 131.563 421.795 138.153 429.286C141.267 432.825 140.551 435.652 137.844 439.186L134.04 443.287C108.321 420.464 81.1007 398.495 55.1122 375.572C54.8875 371.012 54.9254 366.905 54.9773 362.359Z"/><path fill="#6A4160" d="M1090.59 362.117L1091.17 362.706C1091.67 365.854 1091.4 372.43 1091.37 375.871C1082.33 382.864 1071.57 392.759 1062.81 400.384C1046.39 414.734 1029.86 428.958 1013.22 443.053L1010.28 439.969C1008.77 438.236 1006.44 435.669 1006.54 433.232C1006.75 428.192 1027.59 413.916 1032.25 409.734L1032.38 404.13C1045.86 393.35 1059.72 379.644 1072.49 369.82C1080.86 373.02 1083.72 367.036 1090.59 362.117Z"/><path fill="#6A4160" d="M1014.72 485.719C1018.09 486.784 1039.79 504.873 1039.79 508.47C1039.8 513.617 1025.14 524.901 1020.95 528.535C1016.53 532.629 1011.15 537.041 1006.53 541.012C1006.65 525.491 1006.6 509.97 1006.37 494.451C1008.86 491.631 1012.07 488.468 1014.72 485.719Z"/><path fill="#6A4160" d="M132.415 486.425C134.746 487.097 138.994 492.328 140.566 494.226C140.092 509.053 140.454 525.715 140.616 540.609C136.267 537.064 131.628 532.837 127.37 529.112C121.78 524.395 112.48 516.856 107.833 511.682C102.78 506.055 128.616 488.851 132.415 486.425Z"/><path fill="#6A4160" d="M1101.2 465.269C1102.19 469.389 1102.55 577.324 1101.55 581.59L1100.78 581.465L1099.29 578.986C1098.25 576.974 1095.15 570.527 1095.01 568.632C1094.21 558.352 1094.47 546.945 1094.46 536.618L1094.46 470.874C1096.7 468.995 1098.95 467.126 1101.2 465.269Z"/><path fill="#6A4160" d="M1100.62 276.624L1100.97 276.908C1102.6 279.959 1101.95 367.743 1102 379.988L1097.39 377.087L1094.2 374.459L1093.94 281.275C1095.98 279.727 1098.48 278.097 1100.62 276.624Z"/><path fill="#6A4160" d="M45.0518 465.343C46.3446 465.931 50.4472 469.174 51.823 470.217L51.8142 534.77C51.8377 545.616 52.1729 557.706 51.4262 568.531C51.3333 569.878 48.6356 575.702 47.8993 577.337C46.9356 579.139 45.9492 580.93 44.9404 582.707C44.508 565.762 44.7796 547.824 44.7924 530.812C44.7231 508.989 44.8095 487.165 45.0518 465.343Z"/><path fill="#6A4160" d="M124.192 599.024C125.125 600.305 124.998 651.12 125.045 656.198C118.118 664.02 100.56 678.513 92.0645 685.657C91.4624 682.852 91.6318 678.422 91.6367 675.415C99.8888 667.614 109.421 659.904 117.245 651.905C117.665 636.722 117.246 620.268 117.367 604.936C119.667 602.691 121.693 601.051 124.192 599.024Z"/><path fill="#6A4160" d="M1022.83 598.274C1025.24 599.687 1028.38 602.729 1030.11 604.968C1030.13 620.374 1029.87 635.936 1030.26 651.314C1035.72 657.926 1049.2 669.3 1056.09 676.207C1056.27 679.219 1056.15 682.947 1056.12 686.024C1052.9 685.169 1025.77 659.37 1022.59 656.075L1022.83 598.274Z"/><path fill="#6A4160" d="M45.1168 275.782C47.79 276.839 50.3267 278.98 52.401 280.932L52.0337 345.312C52.0067 354.521 52.4944 364.018 52.1677 373.209C52.1017 375.065 51.3049 375.325 49.8739 376.842L44.9897 380.15C44.8281 346.775 44.1375 309.007 45.1168 275.782Z"/><path fill="#56A6B0" d="M53.2452 571.243C55.9952 573.274 75.1634 594.221 77.9341 597.642C76.9865 601.309 74.0148 615.327 72.5716 616.871C64.6857 606.843 54.9282 596.611 46.5777 586.714C48.8626 581.584 51.0852 576.427 53.2452 571.243Z"/><path fill="#56A6B0" d="M1093.11 571.328C1095.03 574.795 1098.4 583.95 1099.64 587.779C1091.07 597.283 1082.6 606.88 1074.24 616.566L1073.54 616.772C1071.66 610.899 1070.86 604.905 1068.64 598.163C1073.87 591.023 1086.39 578.986 1093.11 571.328Z"/><path fill="#6A4160" d="M1018.48 249.644C1020.14 252.164 1019.31 327.528 1019.29 338.046C1017.52 339.64 1015.06 341.523 1013.15 343.058C1012.11 341.392 1012.71 262.444 1012.89 254.032C1014.66 252.788 1016.76 251.018 1018.48 249.644Z"/><path fill="#6A4160" d="M128.482 249.973C129.697 250.377 133.365 253.496 134.543 254.44C135.545 282.058 134.549 315.866 134.456 343.938C132.278 341.672 130.177 339.967 127.774 337.954C127.766 321.718 127.858 305.482 128.05 289.247C128.143 276.35 127.984 262.785 128.482 249.973Z"/><path fill="#56A6B0" d="M56.3596 447.999C58.6385 449.356 72.6359 461.393 74.9129 463.471C84.226 471.969 96.6437 481.551 105.32 490.458C105.394 493.337 105.266 496.305 105.186 499.194C99.7059 496.355 61.7739 462.958 56.0933 457.419C56.1216 454.331 56.2672 451.099 56.3596 447.999Z"/><path fill="#56A6B0" d="M1089.91 448.17L1090.32 448.552C1090.94 450.645 1090.72 455.635 1090.71 458.071C1075.9 471.511 1057.94 486.017 1042.46 498.97L1042.08 498.612C1041.5 496.927 1041.71 492.477 1041.73 490.433C1047.83 484.517 1054.51 479.095 1060.92 473.489C1070.53 464.989 1080.19 456.549 1089.91 448.17Z"/><path fill="#6A4160" d="M1013.74 590.324C1016.26 591.667 1017.66 592.915 1019.87 594.715C1020.43 600.879 1020.21 611.005 1020.19 617.358C1020.05 629.514 1020.09 641.671 1020.28 653.827L1019.8 653.899C1017.9 652.75 1015.57 650.625 1013.82 649.148C1013.34 630.079 1013.66 609.489 1013.74 590.324Z"/><path fill="#6A4160" d="M132.756 591.562L133.458 591.686C134.23 592.781 133.968 643.103 133.977 648.765C132.305 650.396 130.376 652.109 128.646 653.708L128.308 653.616C126.986 651.687 127.704 602.731 127.425 595.107C129.108 593.901 131.013 592.707 132.756 591.562Z"/><path fill="#56A6B0" d="M1083.3 547.301C1084.39 548.732 1083.99 557.47 1083.97 559.805C1082.02 561.234 1080.03 562.819 1078.11 564.304C1077.18 561.92 1077.34 555.298 1077.28 552.391C1079.46 550.242 1080.86 549.163 1083.3 547.301Z"/><path fill="#56A6B0" d="M62.6143 547.017L68.6897 551.379L68.8232 564.501L62.4668 559.554C62.3829 555.081 62.4359 551.481 62.6143 547.017Z"/></svg>