<?xml version="1.0" encoding="utf-8" ?><svg xmlns="http://www.w3.org/2000/svg" xmlns:xlink="http://www.w3.org/1999/xlink" width="1314" height="821" viewBox="0 0 1314 821"><path fill="#2B2C30" transform="matrix(1.02656 0 0 1.02625 -6.10352e-05 0)" d="M786.4 57.5223C793.939 62.2224 812.723 73.3836 818.821 78.2622L832.512 134.115C836.786 151.19 841.708 169.427 845.068 186.646C851.672 192.875 862.343 201.464 867.967 207.416C867.889 215.128 868.002 222.84 868.306 230.546C908.836 209.032 948.302 186.098 988.703 164.415L990.032 163.891C990.614 166.353 980.887 193.692 978.821 196.994C975.048 203.026 890.668 267.009 877.247 277.296C891.137 294.972 906.07 306.066 925.542 316.633C914.033 328.149 909.297 331.918 894.482 338.538C910.756 359.346 928.619 373.838 952.085 385.615C940.492 395.37 929.336 399.155 914.684 401.453C934.827 432.792 943.464 452.442 955.893 487.344C939.566 487.561 922.131 490.265 905.199 490.75C916.804 506.754 921.296 513.822 927.923 532.821C915.036 527.659 905.534 524.102 891.482 522.121C902.585 539.564 906.048 548.114 914.265 567.282C900.222 563.207 879.853 557.1 865.257 557.44C857.429 570.498 849.925 582.631 840.638 594.713C795.353 653.628 729.275 690.309 657.667 706.892C636.203 711.862 637.065 710.202 615.819 704.809C582.333 696.308 551.181 684.714 521.55 666.667C474.286 637.892 443.605 604.542 416.25 557.372C401.731 557.913 381.196 561.907 367.641 567.183C374.25 551.005 379.964 536.595 389.941 522.044C375.478 524.99 367.378 526.836 353.571 532.722C359.044 516.219 365.371 504.148 376.372 490.501C357.832 490.076 343.505 487.821 325.939 486.729C335.374 458.845 349.117 425.54 366.47 401.647C352.868 399.333 340.109 395.122 329.549 385.775C354.462 373.214 368.959 359.764 387.063 338.684C374.888 332.82 365.124 327.226 356.373 316.493C379.983 303.08 386.008 297.64 403.938 277.77C396.236 271.264 387.421 264.935 379.41 258.672C363.707 246.26 347.933 233.938 332.089 221.706C323.699 215.247 310.436 205.75 303.258 198.582C300.572 195.899 294.838 176.716 293.387 171.905C292.16 169.646 291.151 166.39 290.284 163.891C302.504 170.159 315.047 177.646 327.192 184.318L410.53 230.56L410.718 206.361C418.063 199.881 425.355 193.343 432.593 186.745C440.667 150.701 450.373 114.664 458.676 78.6157C465.763 73.0901 483.469 62.6382 491.553 57.5589L536.038 147.49C550.737 142.639 568.547 138.909 583.926 136.253C584.372 126.824 584.996 120.064 592.539 113.084C596.265 109.64 600.859 107.276 605.827 106.243C615.371 104.22 633.058 105.814 643.511 105.609C669.506 105.099 696.345 101.6 696.934 136.169C713.835 139.369 725.557 142.771 741.892 146.888L774.131 82.3384C778.051 74.5613 782.297 64.9369 786.4 57.5223Z"/><path fill="#74466D" transform="matrix(1.02656 0 0 1.02625 -6.10352e-05 0)" d="M290.284 163.891C302.504 170.159 315.047 177.646 327.192 184.318L410.53 230.56C413.313 232.253 416.57 233.967 419.447 235.565C419.582 226.756 419.782 217.947 420.047 209.141C423.222 205.803 430.244 199.886 433.957 196.57C438.844 213.662 442.202 233.116 446.634 250.619L455.872 255.889L452.79 241.286C467.937 225.258 483.191 209.332 498.551 193.508L502.866 211.547C483.657 226.912 473.675 238.12 458.964 257.43C460.515 258.413 462.714 259.585 464.355 260.518C475.699 243.105 496.87 222.088 513.936 210.243C512.516 241.285 515.747 263.625 521.605 293.71C525.132 295.33 529.397 297.641 532.92 299.441C531.126 292.657 529.648 284.509 528.214 277.554C541.442 270.372 559.516 264.052 573.75 259.425C573.593 279.455 572.533 301.672 571.86 321.838L595.591 334.942C593.555 344.409 591.472 353.866 589.341 363.313C565.895 347.365 536.19 330.091 511.643 314.844C466.152 286.63 420.846 258.117 375.73 229.307L324.605 196.792C315.932 191.316 306.892 186.068 298.659 179.99C297.196 178.91 295.411 174.082 293.387 171.905C292.16 169.646 291.151 166.39 290.284 163.891Z"/><path fill="#74466D" transform="matrix(1.02656 0 0 1.02625 -6.10352e-05 0)" d="M988.703 164.415C988.752 167.869 986.284 173.784 984.3 176.62L984.056 176.973C980.171 182.504 916.641 221.333 906.449 227.781C834.85 273.548 762.82 318.638 690.369 363.045C688.079 355.444 685.714 343.107 683.958 335.035C691.961 330.747 700.53 326.317 708.383 321.85C707.919 301.683 706.686 279.261 706.799 259.371C718.456 263.073 742.427 270.884 752.692 277.291L747.517 298.652C751.603 296.792 755.036 295.21 758.993 293.037C764.725 263.765 768.829 240.533 766.752 210.585C781.73 220.712 805.957 244.544 815.597 259.989L820.637 257.263C805.431 237.239 795.12 225.535 775.066 209.432L779.212 193.584C794.185 209.168 810.1 225.538 824.815 241.298C823.706 246.225 822.497 252.259 821.095 257.011C824.142 255.282 827.994 253.239 830.893 251.397C835.024 235.126 840.255 213.201 843.67 196.593C848.503 200.652 854.628 205.574 858.728 210.192L858.769 235.998C861.003 234.766 866.489 231.918 868.306 230.546C908.836 209.032 948.302 186.098 988.703 164.415Z"/><path fill="#74466D" transform="matrix(1.02656 0 0 1.02625 -6.10352e-05 0)" d="M583.926 136.253C584.372 126.824 584.996 120.064 592.539 113.084C596.265 109.64 600.859 107.276 605.827 106.243C615.371 104.22 633.058 105.814 643.511 105.609C669.506 105.099 696.345 101.6 696.934 136.169C696.571 155.332 703.446 283.876 700.756 287.466L701.146 288.582C697.11 281.496 696.146 225.863 693.095 213.938C691.249 206.721 685.305 201.259 679.575 197.666C655.483 196.7 626.164 197.529 601.496 197.502C583.772 208.329 588.286 217.845 585.286 234.295C583.195 245.757 582.741 281.924 578.725 290.805C578.559 275.799 579.751 257.771 580.256 242.484L583.926 136.253Z"/><path fill="#74466D" transform="matrix(1.02656 0 0 1.02625 -6.10352e-05 0)" d="M611.099 291.778C628.733 291.439 651.541 291.345 668.97 291.857C671.493 298.93 673.226 307.692 674.712 315.15C679.883 341.094 686.888 366.813 691.62 392.811C681.968 413.04 671.919 433.078 661.479 452.913C660.954 453.933 660.38 454.894 659.552 455.703C655.435 459.721 628.711 457.811 621.612 457.786C617.223 451.703 609.647 435.905 606.092 428.69C600.368 417.072 593.072 403.843 587.895 392.156C592.416 372.754 596.833 353.327 601.146 333.877C603.833 321.572 607.257 303.102 611.099 291.778Z"/><path fill="#2B2C30" transform="matrix(1.02656 0 0 1.02625 -6.10352e-05 0)" d="M683.954 384.397C682.105 375.931 677.024 354.395 676.901 346.854C678.892 349.538 685.635 383.294 686.593 388.806C684.708 393.467 681.818 398.906 679.365 403.401C670.807 419.086 663.469 436.165 654.423 451.517C645.074 451.885 634.902 451.788 625.482 451.85C621.392 445.361 615.725 433.205 612.178 426.028C606.032 413.52 599.757 401.077 593.354 388.699C594.655 378.191 599.496 359.501 602.298 349.127L603.476 350.294C600.801 361.256 598.458 373.432 595.868 384.636C598.061 387.904 604.355 394.694 607.229 397.876C613.675 404.903 620.025 412.017 626.279 419.216C635.256 418.949 644.236 418.842 653.216 418.895C658.788 413.35 680.781 389.758 683.954 384.397Z"/><path fill="#2B2C30" transform="matrix(1.02656 0 0 1.02625 -6.10352e-05 0)" d="M614.078 295.631C617.398 295.631 632.965 295.043 634.267 296.97C630.991 298.675 619.334 298.102 614.932 298.056C613.733 302.666 612.739 308.084 611.774 312.808C610.552 318.085 608.625 327.198 606.183 331.77C607.704 320.253 610.808 306.739 614.078 295.631Z"/><path fill="#2B2C30" transform="matrix(1.02656 0 0 1.02625 -6.10352e-05 0)" d="M650.884 296.583C654.867 295.774 661.364 296.033 665.513 296.14C668.231 303.334 673.246 324.718 673.742 332.122C671.02 330.757 665.685 302.848 664.607 297.969C661.006 298.047 653.672 298.409 650.884 296.583Z"/><path fill="#3A2E3E" transform="matrix(1.02656 0 0 1.02625 -6.10352e-05 0)" d="M602.298 349.127C602.76 347.495 602.744 346.419 603.865 345.511C604.102 347.572 603.888 348.242 603.476 350.294L602.298 349.127Z"/><path fill="#74466D" transform="matrix(1.02656 0 0 1.02625 -6.10352e-05 0)" d="M408.148 367.349C411.055 369.827 428.449 397.882 434.176 404.604L466.695 386.332C467.887 387.109 471.693 389.402 471.837 390.399C473.722 403.37 472.128 417.421 475.317 430.497C482.179 430.592 489.157 430.572 495.977 431.269C504.405 444.936 521.651 460.425 532.329 473.362C533.35 521.29 533.598 569.231 533.074 617.167C525.167 616.433 515.951 614.324 508.362 612.071C502.957 603.639 487.1 580.49 486.259 570.768C486.058 568.443 488.936 566.524 490.745 565.12C478.583 555.729 461.677 541.101 450.707 530.41L449.719 522.415L457.132 519.777C465.643 527.942 475.138 537.531 483.63 545.891C483.527 542.408 482.905 526.916 484.117 524.812C487.06 523.939 486.187 525.125 489.527 525.368C487.299 519.72 451.089 495.098 445.483 488.122C444.029 486.311 444.136 484.802 443.928 482.65C443.524 478.98 443.25 474.851 442.93 471.141C448.231 474.949 455.351 481.846 460.27 486.349C467.971 493.374 475.734 500.332 483.558 507.22C483.455 499.583 483.429 492.63 483.696 484.968C486.254 486.043 489.075 486.984 491.706 487.915C483.669 478.713 463.607 464.684 453.794 455.611C450.222 452.308 443.418 447.725 440.849 443.589C440.983 440.107 445.483 436.624 448.084 434.163C461.721 447.166 475.75 459.972 488.948 473.401C484.21 453.891 476.648 448.717 469.629 431.63C467.709 426.955 466.64 403.622 466.123 396.906C454.941 401.978 443.96 407.482 433.205 413.405C433.306 424.189 435.284 438.334 436.403 449.15C439.089 475.52 442.375 501.827 446.258 528.048C435.091 518.547 430.962 516.635 427.225 501.871C416.376 459.011 407.439 411.789 408.148 367.349Z"/><path fill="#2B2C30" transform="matrix(1.02656 0 0 1.02625 -6.10352e-05 0)" d="M524.636 477.554L527.204 477.493C527.464 477.8 527.725 478.107 527.985 478.414C528.433 515.589 528.565 577.182 528.442 611.712C523.79 610.711 518.886 609.934 514.183 609.115C512.64 608.855 512.442 608.744 510.999 608.095C510.015 606.562 509.793 604.273 509.789 602.443C509.712 563.161 506.311 522.269 507.08 483.129C512.709 480.92 518.812 479.254 524.636 477.554Z"/><path fill="#74466D" transform="matrix(1.02656 0 0 1.02625 -6.10352e-05 0)" d="M872.089 367.349C873.63 368.905 872.432 384.909 872.207 388.532C870.071 423.739 864.507 458.654 855.593 492.781C849.927 514.746 851.584 512.39 834.841 527.188C838.461 506.781 840.595 482.413 843.195 461.645C844.958 447.571 847.463 426.878 847.585 413.202C840.314 408.61 822.938 400.665 814.739 396.772C814.159 403.994 813.067 426.27 810.922 431.622C804.205 448.379 795.773 453.112 792.199 472.59C802.885 463.316 821.809 444.528 831.858 434.216C834.239 435.932 838.186 439.185 839.702 441.583C839.865 449.205 790.929 481.286 791.513 486.688C794.091 485.976 794.316 485.462 796.594 486.112C798.01 488.816 797.105 503.329 796.947 507.028C809.658 496.972 825.607 481.398 838.485 470.309C837.807 474.796 837.206 479.295 836.685 483.803C835.904 488.857 835.116 487.914 832.304 490.821C827.892 495.382 791.014 522.338 790.343 524.956C792.274 525.28 795.262 523.739 797.273 522.92C797.677 530.663 797.612 538.423 797.078 546.157C804.625 537.707 815.245 528.352 823.497 519.41L830.874 521.934C830.602 525.45 830.33 527.262 829.604 530.72C818.164 540.241 801.219 555.055 790.505 565.151C791.82 566.33 794.385 568.489 794.412 570.093C794.564 578.881 776.946 604.608 772.382 611.476C766.215 614.011 754.231 615.951 747.569 616.559C747.453 587.029 748.49 557.39 748.145 527.821C747.931 509.46 748.026 490.704 748.611 472.36C760.793 458.367 774.31 446.129 785.63 431.076C792.022 430.789 798.798 430.792 805.225 430.694C807.973 420.92 808.099 400.987 808.464 390.097C810.027 388.674 811.918 387.155 813.558 385.779C824.493 390.879 835.85 398.37 847.044 404.099C853.971 396.474 865.702 376.656 872.089 367.349Z"/><path fill="#2B2C30" transform="matrix(1.02656 0 0 1.02625 -6.10352e-05 0)" d="M753.272 476.671C760.089 478.476 767.326 480.215 773.736 483.105C773.909 505.189 772.809 530.037 772.408 552.252C772.21 563.285 772.036 599.702 769.92 608.45C764.093 609.29 758.282 610.233 752.489 611.28C751.758 583.705 752.508 554.408 752.5 526.696C752.496 514.326 751.861 487.456 753.272 476.671Z"/><path fill="#74466D" transform="matrix(1.02656 0 0 1.02625 -6.10352e-05 0)" d="M487.88 69.9914C489.233 71.6766 490.378 74.1769 491.309 76.1453C508.68 112.88 528.602 148.867 545.79 185.623C534.676 189.606 519.736 199.203 510.143 205.859C501.939 173.383 493.433 140.983 484.627 108.665L476.818 111.071C478.161 116.618 479.73 122.3 481.184 127.835C486.366 146.541 491.372 165.295 496.202 184.095C481.201 199.325 465.553 215.811 450.904 231.344C448.778 222.386 442.252 197.878 441.476 190.209C441.004 185.547 448.732 155.995 450.489 148.796C455.783 126.752 461.197 104.736 466.731 82.7511C473.769 78.7762 480.96 74.2247 487.88 69.9914Z"/><path fill="#74466D" transform="matrix(1.02656 0 0 1.02625 -6.10352e-05 0)" d="M789.703 69.6122C794.186 71.8838 806.699 80.2414 811.516 83.2888C817.18 112.625 831.325 159.058 836.577 189.332C836.929 191.366 828.247 225.246 827.042 231.645C812.812 218.219 795.546 198.659 781.575 184.191C786.684 165.883 791.532 146.871 796.309 128.455C797.754 124.207 799.68 115.764 800.903 111.119L792.99 108.881L767.797 204.562C755.289 196.27 746.051 190.952 732.343 184.923C750.563 146.611 772.145 107.862 789.703 69.6122Z"/><path fill="#74466D" transform="matrix(1.02656 0 0 1.02625 -6.10352e-05 0)" d="M869.729 282.928C871.381 284.019 881.498 295.962 884.042 298.466C892.567 306.855 899.459 312.105 909.385 318.693C900.027 327.294 890.201 329.864 878.489 333.166C890.38 352.328 914.594 373.045 932.157 386.594C921.506 387.686 904.523 386.652 892.496 387.3C896.982 394.126 903.635 401.657 908.502 408.994C917.214 422.127 923.973 434.654 930.619 448.893C934.445 456.898 938.187 466.87 941.498 475.256C933.683 472.11 924.125 467.879 915.586 467.024C896.195 465.081 887.705 467.397 869.134 460.667C869.863 453.234 872.149 441.936 873.3 434.08C875.482 419.252 876.936 404.326 877.658 389.356C878.529 371.669 878.751 361.3 871.617 344.829C864.076 327.42 855.881 316.214 843.321 302.349C851.539 296.783 861.832 289.035 869.729 282.928Z"/><path fill="#74466D" transform="matrix(1.02656 0 0 1.02625 -6.10352e-05 0)" d="M411.549 283.004C419.573 289.516 429.188 296.376 437.556 302.614C415.833 327.247 400.194 352.543 402.912 386.421C404.929 411.565 406.676 435.942 412.329 460.689C393.512 467.518 385.284 465.334 365.845 467.017C357.713 467.721 347.422 472.027 340.031 475.117C343.434 466.411 346.43 458.774 350.207 450.18C358.208 429.186 375.415 404.606 388.845 387C375.508 386.664 361.929 387.592 348.593 386.471C368.753 372.38 388.694 353.513 402.702 333.058C390.405 329.508 381.503 327.024 371.533 318.334C391.044 306.254 396.006 300.022 411.549 283.004Z"/><path fill="#74466D" transform="matrix(1.02656 0 0 1.02625 -6.10352e-05 0)" d="M616.604 472.478C632.019 472.429 648.575 472.074 663.903 472.509C665.771 483.862 664.648 492.092 665.477 502.972C669.682 492.761 668.93 482.938 668.147 472.121C700.767 480.359 687.286 481.556 681.208 506.643C678.405 518.211 678.211 533.61 675.5 545.507C672.661 543.434 667.303 539.285 664.406 537.756C663.49 534.252 666.328 525.111 663.387 521.286C662.725 524.248 662.008 527.928 661.141 530.776C653.088 532.947 643.918 536.327 635.627 534.85C630.254 533.893 624.963 531.864 619.629 530.874C618.8 526.761 617.663 520.444 616.401 516.602C615.418 523.978 615.74 529.863 616.312 537.275C612.478 539.913 608.732 542.676 605.08 545.56C602.679 532.151 601.725 517.694 598.912 504.619C597.891 499.872 592.454 487.271 590.512 482.585C596.131 475.941 603.302 473.647 611.81 472.382C611.565 486.225 611.349 491.007 615.426 504.192C615.471 495.41 615.027 480.29 616.604 472.478Z"/><path fill="#3A2E3E" transform="matrix(1.02656 0 0 1.02625 -6.10352e-05 0)" d="M663.387 521.286C663.562 519.909 663.59 517.991 664.435 517.011C665.295 520.647 665.485 534.365 664.406 537.756C663.49 534.252 666.328 525.111 663.387 521.286Z"/><path fill="#74466D" transform="matrix(1.02656 0 0 1.02625 -6.10352e-05 0)" d="M603.867 209.462C625.811 208.419 655.188 209.315 677.533 209.336C681.611 212.659 682.786 213.934 686.181 217.92C686.697 229.505 688.794 245.094 690.064 256.832C692.245 278.444 694.831 300.013 697.818 321.528L686.851 326.907C686.48 323.939 685.676 316.438 685.067 314.102C681.238 299.409 679.635 246.367 672.826 236.59C671.511 235.424 668.475 233.205 666.847 233.046C650.532 231.456 629.551 232.359 613.229 232.478C612.332 233.039 611.455 233.631 610.598 234.252C608.868 235.527 606.522 237.769 606.008 239.809C603.826 248.459 602.632 258.889 601.391 267.713C598.791 287.487 595.975 307.233 592.946 326.946C589.573 325.472 585.625 323.33 582.291 321.633C584.465 306.01 586.143 289.951 588.141 274.265C590.489 255.819 593.045 236.877 594.697 218.387C597.862 214.596 599.813 212.314 603.867 209.462Z"/><path fill="#74466D" transform="matrix(1.02656 0 0 1.02625 -6.10352e-05 0)" d="M546.22 476.721C559.697 479 569.914 482.421 583.711 482.77C586.338 488.306 592.788 499.826 594.331 505.093C596.821 513.593 598.095 527.472 599.438 536.722C601.122 548.314 602.918 554.877 606.009 566.058C611.049 570.769 628.522 583.789 634.24 587.695C634.406 590.021 634.708 591.738 634.061 593.972C632.247 595.535 631.614 595.152 628.891 595.536C623.612 595.56 617.954 596.509 612.499 596.592C607.39 596.67 603.28 596.002 598.213 595.542C586.364 579.036 579.263 562.646 572.705 543.678C573.331 538.135 575.871 531.373 577.701 526.031C574.75 518.683 560.349 509.008 553.666 503.996C550.485 494.329 548.174 486.688 546.22 476.721Z"/><path fill="#74466D" transform="matrix(1.02656 0 0 1.02625 -6.10352e-05 0)" d="M731.059 476.334C732.549 476.105 732.494 476.114 733.983 476.389C734.594 478.79 728.05 500.149 726.985 503.848C708.27 519.027 700.015 517.793 707.2 538.401C711.208 549.897 689.676 583.776 682.513 595.472C671.994 595.683 669.344 596.72 657.654 595.714L646.859 594.965L646.766 587.474C653.551 583.138 670.212 571.224 675.251 565.747C676.468 558.265 678.694 550.815 680.115 543.121C682.294 531.322 683.364 516.084 686.525 504.781C687.844 500.064 694.11 488.16 696.441 482.588C707.323 482.516 720.379 478.992 731.059 476.334Z"/><path fill="#74466D" transform="matrix(1.02656 0 0 1.02625 -6.10352e-05 0)" d="M573.847 181.913C574.838 181.644 574.97 181.763 576.006 181.922C576.75 184.658 574.166 244.996 573.751 250.978C560.254 254.519 546.323 260.728 533.481 266.293C531.442 267.177 528.709 269.021 526.564 269.091C522.082 241.897 521.062 232.168 522.54 204.631C540.084 193.272 554.396 188.153 573.847 181.913Z"/><path fill="#74466D" transform="matrix(1.02656 0 0 1.02625 -6.10352e-05 0)" d="M704.287 181.531C721.277 184.804 743.99 195.99 758.577 205.259C759.163 230.375 758.207 240.687 754.756 265.474L754.186 268.101C752.803 268.761 742.302 263.762 740.124 262.819C729.148 258.068 718.488 254.234 706.905 251.192C705.212 229.678 705.207 203.539 704.287 181.531Z"/><path fill="#74466D" transform="matrix(1.02656 0 0 1.02625 -6.10352e-05 0)" d="M774.241 349.662C777.472 351.108 788.854 364.089 791.532 367.223C791.815 376.962 791.959 386.816 791.043 396.522C786.207 397.045 778.749 396.198 774.579 397.116C767.229 398.733 758.907 402.868 751.627 405.381C731.598 412.295 710.601 421.962 690.748 428.521C685.795 430.558 681.628 432.274 676.525 433.895C680.013 426.564 683.669 419.313 687.49 412.15C706.24 401.21 729.988 394.41 748.265 383.538C751.279 381.746 770.562 354.66 774.241 349.662Z"/><path fill="#74466D" transform="matrix(1.02656 0 0 1.02625 -6.10352e-05 0)" d="M506.065 350.418C512.252 355.751 524.6 376.896 531.943 383.305C537.163 387.861 544.656 389.654 550.75 392.734C562.838 398.845 580.756 405.199 592.106 411.659L592.678 411.989C596.333 418.537 600.555 427.525 604.089 434.422L592.14 429.988C564.663 419.826 537.003 408.111 509.344 398.19C505.148 396.685 495.715 398.739 490.501 396.279C488.465 394.087 489.378 371.781 489.422 367.226C494.089 361.722 500.788 355.313 506.065 350.418Z"/><path fill="#74466D" transform="matrix(1.02656 0 0 1.02625 -6.10352e-05 0)" d="M838.935 307.298C852.66 315.258 866.548 345.511 871.22 360.686C865.107 370.672 856.71 383.502 850.045 392.946C848.787 394.676 848.47 395.809 846.777 396.333C839.565 393.256 826.501 385.328 819.48 381.13C830.117 357.805 836.697 332.836 838.935 307.298Z"/><path fill="#74466D" transform="matrix(1.02656 0 0 1.02625 -6.10352e-05 0)" d="M630.866 617.321C636.667 617.045 645.751 616.044 650.862 618.002C655.635 623.121 650.806 652.882 649.905 661.267C654.835 647.855 654.217 640.932 657.099 628.319C659.847 633.862 662.633 639.386 665.454 644.892C662.985 658.585 661.55 667.397 655.794 679.887L651.04 663.661C651.198 670.117 653.683 681.387 652.078 686.13C649.149 687.749 631.37 688.925 628.925 685.94C627.922 684.715 628.823 676.5 629.036 674.085C628.895 672.775 628.372 671.908 627.812 670.716L625.506 681.175C619.399 668.704 617.621 658.562 615.248 644.884C618.152 639.497 621.082 633.883 624.09 628.574C625.537 641.567 626.349 648.405 630.663 661.016C629.108 647.452 627.333 635.076 627.284 621.405C628.426 619.974 629.484 618.51 630.866 617.321Z"/><path fill="#3A2E3E" transform="matrix(1.02656 0 0 1.02625 -6.10352e-05 0)" d="M627.812 670.716C628.089 669.139 628.172 667.378 629.201 666.239C629.843 668.457 629.466 671.825 629.036 674.085C628.895 672.775 628.372 671.908 627.812 670.716Z"/><path fill="#74466D" transform="matrix(1.02656 0 0 1.02625 -6.10352e-05 0)" d="M440.974 307.957C442.296 309.801 442.39 317.308 442.851 320.311C446.16 341.857 453.175 361.245 460.946 381.532C457.233 383.883 437.257 395.817 433.736 396.692L432.573 395.735C424.065 383.677 417.304 374.012 409.773 361.231C415.252 342.712 426.45 321.026 440.974 307.957Z"/><path fill="#74466D" transform="matrix(1.02656 0 0 1.02625 -6.10352e-05 0)" d="M556.169 583.023C560.526 586.104 569.905 598.254 572.773 603.105C574.825 606.575 577.321 614.474 578.921 618.729C581.719 626.289 584.784 633.747 588.11 641.09L607.223 652.936C608.236 662.746 609.754 672.971 610.915 682.845L605.695 680.653L576.076 667.723C572.765 660.69 567.761 645.804 564.968 638.166L547.467 591.151L556.169 583.023Z"/><path fill="#74466D" transform="matrix(1.02656 0 0 1.02625 -6.10352e-05 0)" d="M724.191 582.264C728.274 585.342 729.649 586.807 733.099 590.516L705.159 667.332C695.857 671.397 686.533 675.413 677.188 679.379L670.01 682.406C670.984 672.595 672.332 662.417 673.502 652.596C679.989 648.623 686.53 644.738 693.123 640.942C695.925 634.025 698.652 627.079 701.304 620.103C702.703 616.326 707.237 602.94 709.181 600.408C713.557 594.709 719.441 588.35 724.191 582.264Z"/><path fill="#74466D" transform="matrix(1.02656 0 0 1.02625 -6.10352e-05 0)" d="M449.303 311.514C452.428 312.979 462.999 320.571 466.351 322.904C477.495 330.544 488.523 338.35 499.432 346.321C495.549 350.25 485.774 359.652 483.109 363.589L483.151 372.539C483.305 378.318 483.207 384.305 483.186 390.101C480.463 388.463 472.589 383.871 470.909 381.746C460.316 368.349 449.185 326.843 449.303 311.514Z"/><path fill="#74466D" transform="matrix(1.02656 0 0 1.02625 -6.10352e-05 0)" d="M830.509 311.747L831.139 312.403C832.432 320.763 823.837 350.822 820.442 359.15C813.976 375.008 813.564 381.383 797.697 388.827C797.53 383.957 797.641 378.51 797.641 373.594L797.465 363.172C794.28 359.136 785.359 350.1 781.55 345.887L830.509 311.747Z"/><path fill="#86BF83" transform="matrix(1.02656 0 0 1.02625 -6.10352e-05 0)" d="M629.413 244.617C635.522 244.571 649.064 244.028 654.336 245.556C658.437 249.357 661.669 276.332 662.854 283.735L651.844 283.818C640.495 283.947 629.146 283.941 617.798 283.798C619.076 274.1 622.201 257.068 625.023 247.636C625.644 245.56 627.676 245.142 629.413 244.617Z"/><path fill="#74466D" transform="matrix(1.02656 0 0 1.02625 -6.10352e-05 0)" d="M765.958 427.953C767.088 427.874 767.341 428.088 768.461 428.431C769.492 429.868 769.22 429.226 769.245 431.162C766.903 436.12 742.137 455.763 736.35 460.314C719.765 473.36 696.866 465.04 677.844 460.926C675.948 460.673 673.654 459.99 671.768 459.498C674.529 456.453 676.67 453.735 679.177 450.515C690.119 452.832 710.946 456.018 722.012 457.129C736.006 449.041 751.798 436.908 765.958 427.953Z"/><path fill="#74466D" transform="matrix(1.02656 0 0 1.02625 -6.10352e-05 0)" d="M513.102 428.324C517.416 429.731 550.52 452.921 559.11 457.747C570.191 455.207 588.765 452.792 600.543 450.768C602.774 453.05 606.833 456.607 607.08 459.578L605.449 460.183C591.78 463.291 573.924 467.597 560.41 468.722C557.862 467.261 543.674 461.219 542.429 460.134C534.099 452.882 518.938 440.496 511.944 432.919C511.556 430.498 511.848 430.934 513.102 428.324Z"/><path fill="#32BACE" transform="matrix(1.02656 0 0 1.02625 -6.10352e-05 0)" d="M750.88 409.952L751.908 410.593C752.326 412.33 752.223 414.881 750.865 416.125C741.116 425.052 729.217 431.919 719.297 440.712C708.739 440.026 698.191 439.204 687.655 438.246C686.676 438.266 685.755 438.032 684.789 437.845L684.643 436.961C686.831 434.641 743.985 412.694 750.88 409.952Z"/><path fill="#32BACE" transform="matrix(1.02656 0 0 1.02625 -6.10352e-05 0)" d="M528.44 409.965C533.285 411.313 594.247 435.711 595.688 436.903L595.703 437.921L593.599 438.384C582.986 439.165 572.391 440.17 561.821 441.397C551.044 432.675 540.301 425.096 528.942 417.179C528.518 414.21 528.412 412.958 528.44 409.965Z"/><path fill="#74466D" transform="matrix(1.02656 0 0 1.02625 -6.10352e-05 0)" d="M847.296 538.009C847.617 542.291 834.524 566.019 831.62 571.301C827.821 572.551 823.491 573.663 819.605 574.752C819.365 573.174 820.176 562.957 820.328 560.707C825.65 555.457 841.201 542.718 847.296 538.009Z"/><path fill="#74466D" transform="matrix(1.02656 0 0 1.02625 -6.10352e-05 0)" d="M433.098 538.37C436.086 538.99 457.041 558.335 461.204 562.069C461.183 566.212 461.604 571.04 461.865 575.225C458.108 574.391 453.087 572.881 449.291 571.847C445.925 566.336 435.402 544.303 433.098 538.37Z"/><path fill="#74466D" transform="matrix(1.02656 0 0 1.02625 -6.10352e-05 0)" d="M639.838 603.396C641.908 603.02 660.643 606.165 664.133 606.718C662.953 611.766 662.109 613.205 659.391 617.692L652.047 611.305L641.313 610.813C637.053 610.565 632.855 610.928 628.596 611.189C625.823 613.778 624.034 616.7 620.234 615.427C618.262 613.356 617.066 609.442 616 606.663C623.91 605.493 631.891 604.233 639.838 603.396Z"/><path fill="#74466D" transform="matrix(1.02656 0 0 1.02625 -6.10352e-05 0)" d="M537.106 523.533C539.717 525.521 565.948 570.027 567.022 573.957C564.285 573.289 539.88 542.907 536.999 538.503C536.839 533.743 537.031 528.351 537.106 523.533Z"/><path fill="#74466D" transform="matrix(1.02656 0 0 1.02625 -6.10352e-05 0)" d="M742.845 522.976C744.118 524.742 743.736 534.724 743.728 537.377C739.034 545.052 721.603 564.993 715.063 572.5L714.606 571.374C716.824 566.239 723.288 555.946 726.368 550.726C731.347 542.286 737.242 530.575 742.845 522.976Z"/><path fill="#74466D" transform="matrix(1.02656 0 0 1.02625 -6.10352e-05 0)" d="M592.262 604.156C600.056 608.192 601.498 608.519 610.03 608.238C607.775 614.503 605.634 620.808 603.609 627.151C602.974 629.482 602.08 632.124 601.352 634.461C597.369 625.182 594.516 614.041 592.262 604.156Z"/><path fill="#74466D" transform="matrix(1.02656 0 0 1.02625 -6.10352e-05 0)" d="M686.959 604.968C687.504 605.001 687.358 605.068 687.949 605.524C687.434 611.173 682.403 627.603 680.166 633.234L679.504 633.423L677.923 629.501C676.363 623.119 673.088 614.465 670.836 608.124C677.67 608.382 680.967 608.212 686.959 604.968Z"/><path fill="#74466D" transform="matrix(1.02656 0 0 1.02625 -6.10352e-05 0)" d="M536.221 494.281C537.877 496.135 540.047 499.84 541.285 502.072C552.105 521.578 563.117 541.046 573.475 560.793C574.815 563.349 575.53 566.257 576.023 569.082C574.256 567.804 570.197 561.08 569.41 559.088C564.911 547.699 536.317 504.181 536.221 494.281Z"/><path fill="#74466D" transform="matrix(1.02656 0 0 1.02625 -6.10352e-05 0)" d="M744.196 492.967C745.304 498.053 729.676 524.865 726.326 530.887C719.737 542.734 712.927 557.238 705.559 568.435C705.498 568.297 705.416 568.166 705.376 568.02C704.236 563.879 739.229 500.289 744.196 492.967Z"/><path fill="#74466D" transform="matrix(1.02656 0 0 1.02625 -6.10352e-05 0)" d="M620.285 547.797C625.401 548.066 633.047 552.534 639.927 552.455C647.701 552.367 653.092 548.675 660.483 548.376C661.885 548.319 662.619 549.223 663.262 550.215L662.377 551.13L658.909 551.187C652.575 553.62 646.29 556.542 640.092 559.329C632.387 555.547 626.326 551.572 617.852 551.097L617.641 550.413L620.285 547.797Z"/><path fill="#74466D" transform="matrix(1.02656 0 0 1.02625 -6.10352e-05 0)" d="M556.848 511.627C559.701 512.516 570.48 522.005 573.203 524.465L569.721 533.316L568.537 535.596L567.829 535.602C564.535 529.788 559.292 517.968 556.848 511.627Z"/><path fill="#74466D" transform="matrix(1.02656 0 0 1.02625 -6.10352e-05 0)" d="M577.478 581.691C583.831 586.213 588.461 602.689 589.716 610.278C586.881 608.224 582.207 603.651 579.576 601.15C578.809 594.967 577.757 587.827 577.478 581.691Z"/><path fill="#74466D" transform="matrix(1.02656 0 0 1.02625 -6.10352e-05 0)" d="M702.881 581.086C703.521 583.616 701.44 597.387 701.055 601.269L691.371 609.478C690.727 601.668 698.692 587.824 702.881 581.086Z"/><path fill="#74466D" transform="matrix(1.02656 0 0 1.02625 -6.10352e-05 0)" d="M721.777 513.127C722.735 514.73 714.381 534.071 712.182 535.324L711.274 534.175L707.412 524.92C712.211 520.203 716.206 516.814 721.777 513.127Z"/><path fill="#74466D" transform="matrix(1.02656 0 0 1.02625 -6.10352e-05 0)" d="M667.885 614.324C669.654 616.258 670.855 619.597 671.92 622.088C670.437 624.206 667.743 627.11 665.962 629.142C664.884 626.961 662.918 624.219 661.516 622.135C664.493 619.162 665.481 617.808 667.885 614.324Z"/><path fill="#74466D" transform="matrix(1.02656 0 0 1.02625 -6.10352e-05 0)" d="M612.078 614.732C613.779 616.182 617.649 620.369 619.398 622.147L615.651 627.808L615.271 628.115C613.655 627.678 610.682 624.369 609.219 622.957C609.978 620.183 611.068 617.432 612.078 614.732Z"/><path fill="#C4E1C3" transform="matrix(1.02656 0 0 1.02625 -6.10352e-05 0)" d="M1223.26 719.182C1224.09 720.06 1224.34 721.074 1224.84 722.178C1231.74 737.252 1235.03 738.667 1249.81 744.226C1235.65 748.784 1229.21 753.308 1224.48 768.023C1222.76 767.093 1219.55 757.538 1214.78 753.391C1208.11 747.598 1207.1 747.407 1199.17 743.682C1213.5 736.826 1217.91 735.073 1223.26 719.182Z"/></svg>